<?xml version="1.0" encoding="UTF-8" standalone="no"?>
<svg
   version="1.0"
   width="801.90002pt"
   height="1573.6178pt"
   viewBox="0 0 801.90002 1573.6179"
   preserveAspectRatio="xMidYMid meet"
   id="svg970"
   sodipodi:docname="flux-gitrepo-logo.svg"
   inkscape:version="1.1.2 (0a00cf5339, 2022-02-04)"
   xmlns:inkscape="http://www.inkscape.org/namespaces/inkscape"
   xmlns:sodipodi="http://sodipodi.sourceforge.net/DTD/sodipodi-0.dtd"
   xmlns="http://www.w3.org/2000/svg"
   xmlns:svg="http://www.w3.org/2000/svg">
  <defs
     id="defs974" />
  <sodipodi:namedview
     id="namedview972"
     pagecolor="#ffffff"
     bordercolor="#666666"
     borderopacity="1.0"
     inkscape:pageshadow="2"
     inkscape:pageopacity="0.0"
     inkscape:pagecheckerboard="0"
     inkscape:document-units="pt"
     showgrid="false"
     inkscape:zoom="0.66558935"
     inkscape:cx="412.41645"
     inkscape:cy="1884.7958"
     inkscape:window-width="2525"
     inkscape:window-height="1376"
     inkscape:window-x="70"
     inkscape:window-y="27"
     inkscape:window-maximized="0"
     inkscape:current-layer="svg970" />
  <metadata
     id="metadata936">
Created by potrace 1.16, written by Peter Selinger 2001-2019
</metadata>
  <g
     transform="matrix(0.1,0,0,-0.1,-11,1305.0353)"
     fill="#000000"
     stroke="none"
     id="g968">
    <path
       d="m 4015,13031 c -38,-17 -2765,-1786 -2831,-1837 -50,-37 -84,-116 -84,-193 0,-75 22,-130 72,-178 30,-28 2629,-1723 2643,-1723 3,0 5,284 5,631 0,698 2,680 -64,720 -26,16 -51,19 -160,19 -143,0 -192,14 -230,67 -27,37 -32,111 -11,154 41,78 620,1077 642,1107 64,85 188,82 245,-6 13,-20 165,-282 338,-581 277,-480 313,-548 313,-586 0,-58 -29,-105 -83,-132 -39,-20 -59,-23 -177,-23 h -132 l -36,-31 c -19,-17 -40,-47 -45,-67 -7,-25 -10,-243 -8,-657 l 3,-621 1300,846 c 715,465 1314,855 1331,867 16,12 43,45 59,75 53,96 34,228 -42,300 -30,28 -2757,1804 -2832,1844 -56,30 -156,33 -216,5 z"
       id="path938" />
    <path
       d="m 4400,8405 c 0,-104 0,-105 28,-119 54,-27 330,-125 480,-170 159,-47 183,-53 167,-37 -18,17 -657,431 -666,431 -5,0 -9,-47 -9,-105 z"
       id="path940" />
    <path
       d="m 3430,8259 c -58,-38 -112,-74 -120,-79 -13,-8 -10,-14 15,-35 76,-64 458,-285 493,-285 9,0 12,45 12,158 v 158 l -45,22 c -25,12 -86,47 -136,77 -50,30 -96,55 -102,54 -7,0 -59,-32 -117,-70 z"
       id="path942" />
    <path
       d="m 2818,7862 c -65,-42 -118,-81 -118,-87 1,-27 309,-234 491,-329 185,-97 574,-256 624,-256 13,0 15,25 15,148 v 147 l -143,54 c -246,92 -500,225 -677,354 -35,26 -66,47 -70,46 -3,0 -58,-35 -122,-77 z"
       id="path944" />
    <path
       d="m 4402,7790 3,-153 100,-29 c 55,-16 318,-85 585,-153 267,-68 554,-144 638,-170 558,-169 939,-378 1268,-698 l 111,-107 14,32 c 33,79 7,208 -54,265 -17,17 -278,191 -579,386 -507,330 -553,358 -640,385 -141,45 -386,112 -764,206 -295,74 -610,159 -667,181 -16,7 -17,-3 -15,-145 z"
       id="path946" />
    <path
       d="m 2218,7472 c -65,-42 -118,-80 -118,-83 0,-16 208,-179 340,-267 346,-231 726,-386 1353,-551 l 37,-9 v 147 148 l -148,42 c -440,122 -784,266 -1047,438 -109,72 -243,171 -264,197 -7,9 -19,16 -25,15 -6,0 -64,-35 -128,-77 z"
       id="path948" />
    <path
       d="m 4400,7172 v -150 l 270,-66 c 621,-153 966,-271 1267,-432 192,-103 396,-248 535,-382 44,-42 71,-61 80,-56 55,31 228,148 228,153 0,3 -37,43 -82,88 -292,286 -687,517 -1178,688 -162,56 -451,138 -783,220 -166,42 -310,78 -319,81 -17,5 -18,-6 -18,-144 z"
       id="path950" />
    <path
       d="m 1630,7089 -123,-80 49,-51 c 158,-162 449,-369 692,-492 356,-179 625,-270 1332,-446 435,-109 608,-156 795,-217 362,-118 669,-267 899,-437 42,-31 79,-56 82,-56 11,0 244,155 244,162 0,11 -157,130 -265,201 -281,183 -593,321 -1009,447 -88,26 -352,96 -586,155 -646,162 -917,245 -1180,360 -283,124 -545,292 -746,477 l -60,57 z"
       id="path952" />
    <path
       d="m 1133,6733 c -54,-93 -41,-221 31,-298 45,-48 815,-552 902,-591 180,-79 523,-181 1092,-324 457,-114 705,-185 907,-260 164,-60 462,-204 588,-284 49,-31 93,-56 100,-56 13,0 247,152 247,161 1,22 -314,216 -485,299 -326,158 -589,243 -1325,429 -729,184 -977,266 -1295,429 -238,123 -508,320 -663,485 -29,32 -57,57 -62,57 -5,0 -21,-21 -37,-47 z"
       id="path954" />
    <path
       d="m 4402,6564 3,-146 175,-48 c 563,-154 957,-338 1278,-598 l 94,-75 31,18 c 18,10 74,46 125,80 l 92,62 -42,39 c -309,282 -699,496 -1213,664 -162,53 -506,150 -532,150 -11,0 -13,-27 -11,-146 z"
       id="path956" />
    <path
       d="m 2970,5253 c 0,-13 937,-617 1027,-662 86,-43 121,-48 188,-30 45,12 204,109 205,124 0,15 -190,127 -349,206 -240,118 -513,217 -870,315 -91,24 -174,47 -183,50 -10,3 -18,2 -18,-3 z"
       id="path958" />
    <path
       d="M 1090,3695 C 852,3647 666,3489 586,3268 544,3151 530,3066 523,2878 l -6,-178 H 313 110 V 2520 2340 H 315 520 V 1255 170 h 200 200 v 1085 1085 h 260 260 v 180 180 H 1178 917 l 7,152 c 4,84 13,182 22,217 20,86 68,174 122,221 105,93 290,113 426,46 28,-14 51,-24 52,-23 1,1 24,71 52,155 l 51,154 -62,28 c -117,55 -346,75 -497,45 z"
       id="path960" />
    <path
       d="M 2060,1915 V 170 h 200 200 v 1745 1745 h -200 -200 z"
       id="path962" />
    <path
       d="m 3150,1786 c 0,-561 4,-953 10,-1015 30,-289 141,-471 352,-576 131,-64 248,-88 443,-88 113,0 173,5 245,20 207,44 417,157 586,315 l 64,60 V 336 170 h 205 205 V 1435 2700 H 5055 4850 V 1764 828 l -83,-81 C 4574,558 4349,464 4095,467 c -198,2 -316,43 -408,142 -55,59 -82,110 -110,209 -21,76 -21,94 -25,980 l -3,902 h -200 -199 z"
       id="path964" />
    <path
       d="m 5750,2695 c 0,-2 205,-279 455,-615 273,-367 453,-616 448,-623 -3,-7 -217,-294 -473,-638 -257,-344 -470,-631 -474,-637 -5,-9 49,-12 226,-12 l 233,1 365,500 c 201,275 370,504 375,509 6,5 152,-186 380,-497 203,-278 375,-507 380,-509 6,-3 112,-3 237,-2 l 227,3 -484,645 c -268,357 -480,650 -477,656 4,6 207,279 452,608 245,328 447,601 448,606 2,6 -85,10 -230,10 l -233,-1 -344,-474 c -190,-261 -347,-475 -350,-475 -3,0 -161,214 -351,475 l -345,475 h -232 c -128,0 -233,-2 -233,-5 z"
       id="path966" />
  </g>
  <path
     style="fill:#0c69f8;fill-opacity:1;stroke-width:1.12682"
     d="M 364.79477,390.70409 C 318.09821,360.83752 114.07418,227.61725 108.15091,223.12499 c -8.199338,-6.21846 -10.731818,-19.61169 -5.6237,-29.7414 3.30364,-6.55131 -1.6336,-3.21394 158.03663,-106.826714 C 391.23221,1.7639087 391.69082,1.4797652 398.72041,0.95985471 c 4.65821,-0.3445215 7.65976,0.12596779 11.42269,1.79048849 5.40597,2.3913203 49.40417,30.7012478 176.07198,113.2906668 110.85879,72.28169 110.2529,71.86773 112.70725,77.00445 3.43088,7.18044 3.50926,14.9505 0.22322,22.12813 -1.55664,3.40017 -4.27762,7.23406 -6.04661,8.51975 -6.73802,4.89716 -261.17275,170.20508 -261.48761,169.89022 -0.18211,-0.18209 -0.39007,-28.21756 -0.46214,-62.30101 -0.11614,-54.91784 0.0753,-62.36899 1.68228,-65.47653 3.13485,-6.06214 5.61387,-7.0232 18.13413,-7.03016 13.26251,-0.008 18.60753,-1.25803 23.30165,-5.45221 2.61032,-2.33233 3.57256,-4.32012 4.02217,-8.30898 0.53848,-4.77744 -0.0101,-6.37579 -6.17333,-17.99258 -5.84315,-11.0132 -34.73539,-61.39494 -54.00301,-94.16945 -6.75892,-11.49702 -9.67723,-13.79887 -17.48579,-13.79207 -6.90584,0.006 -11.02138,3.03507 -16.23184,11.94677 -15.33583,26.22956 -50.61698,87.13984 -55.49894,95.81479 -6.35304,11.28895 -7.42936,17.64151 -4.08481,24.10915 2.8258,5.46449 7.38978,7.00609 22.51353,7.6045 14.31804,0.56654 18.61253,1.8232 21.09831,6.17384 1.10434,1.93283 1.52333,15.58252 1.78962,58.30132 0.19123,30.6777 0.19123,59.18833 0,63.35697 l -0.3477,7.57932 z"
     id="path1093" />
  <path
     style="fill:#0c69f8;fill-opacity:1;stroke-width:1.12682"
     d="m 466.20866,488.17646 c -28.09713,-9.43363 -35.28918,-12.32436 -36.13289,-14.52304 -0.32458,-0.84585 -0.44058,-5.44289 -0.25777,-10.21562 l 0.33238,-8.67771 25.91689,16.69941 c 33.69034,21.70821 38.62444,25.08612 36.60664,25.06105 -0.92136,-0.0115 -12.83073,-3.76629 -26.46525,-8.34409 z"
     id="path19669" />
  <path
     style="fill:#0c69f8;fill-opacity:1;stroke-width:1.12682"
     d="M 687.01441,643.99916 C 660.95822,619.83692 636.47,604.266 602.73635,590.41067 577.30184,579.96403 560.9102,575.11234 481.98415,554.6697 c -20.4518,-5.29722 -40.48104,-10.57393 -44.50943,-11.72604 l -7.32434,-2.09472 -0.31642,-14.40655 c -0.29347,-13.362 -0.17092,-14.36466 1.69023,-13.82886 14.8277,4.26861 46.5164,12.72422 76.92666,20.5266 43.07478,11.05172 63.54605,16.78722 70.39353,19.72239 7.1799,3.07767 68.38793,42.1881 106.1782,67.84528 13.36315,9.07273 16.44572,13.62746 16.55333,24.45886 0.117,11.77608 -0.67155,11.71285 -14.5615,-1.1675 z"
     id="path19708" />
  <path
     style="fill:#0c69f8;fill-opacity:1;stroke-width:1.12682"
     d="m 357.12977,511.68032 c -14.4294,-8.07653 -30.58847,-18.09263 -34.19803,-21.19745 l -2.87021,-2.46885 9.40818,-6.25557 c 15.2771,-10.15786 13.23961,-9.8689 24.42883,-3.46454 5.37317,3.07544 11.41739,6.42399 13.43158,7.44123 l 3.66217,1.84952 v 15.18315 c 0,11.41882 -0.34922,15.17222 -1.40853,15.13906 -0.77469,-0.0242 -6.37899,-2.8262 -12.45399,-6.22655 z"
     id="path19747" />
  <path
     style="fill:#0c69f8;fill-opacity:1;stroke-width:1.12682"
     d="m 367.04841,584.73866 c -8.48529,-2.10896 -48.4568,-19.38447 -62.25907,-26.90808 -9.51423,-5.18622 -36.58028,-22.88274 -42.32869,-27.67566 l -3.17389,-2.64633 11.42501,-7.59587 c 6.28374,-4.17773 11.76855,-7.59081 12.18845,-7.58462 0.41989,0.006 6.08767,3.59183 12.59506,7.96811 14.05704,9.45348 43.77972,24.49531 62.25647,31.50627 l 13.23975,5.02379 3.9e-4,14.36697 c 2.2e-4,7.90183 -0.37991,14.30815 -0.84472,14.23626 -0.46481,-0.0719 -1.85926,-0.38277 -3.09876,-0.69084 z"
     id="path19786" />
  <path
     style="fill:#0c69f8;fill-opacity:1;stroke-width:1.12682"
     d="M 634.05408,687.93227 C 602.6016,659.66341 567.64244,641.2542 513.47002,624.43368 c -13.40259,-4.16149 -65.5352,-17.92187 -80.78429,-21.32296 l -3.09876,-0.69114 v -14.06379 c 0,-9.91339 0.38553,-14.06379 1.30639,-14.06379 2.38192,0 71.07007,18.00651 88.83929,23.28912 25.99636,7.72843 42.13428,14.01717 65.91902,25.68778 30.37822,14.90588 56.92234,33.30022 75.32356,52.19715 l 5.46066,5.60777 -11.2019,7.45743 c -6.16106,4.10157 -11.43013,7.45741 -11.70907,7.45741 -0.27893,0 -4.5408,-3.62538 -9.47084,-8.05639 z"
     id="path19825" />
  <path
     style="fill:#0c69f8;fill-opacity:1;stroke-width:1.12682"
     d="m 574.38346,726.84764 c -4.95801,-4.0072 -13.57819,-10.34537 -19.15595,-14.0848 -13.09552,-8.77948 -44.26181,-24.08464 -63.75465,-31.30868 -14.38935,-5.33268 -57.004,-18.14331 -60.35387,-18.14331 -1.20976,0 -1.53202,-2.96274 -1.53202,-14.08526 0,-12.66444 0.19892,-14.08497 1.97194,-14.08233 1.08457,10e-4 9.32444,2.05454 18.31084,4.56207 56.78465,15.84498 91.95382,30.94001 126.20394,54.16823 14.37407,9.74841 31.89129,24.31609 30.99101,25.77277 -0.71867,1.16285 -19.6937,13.19057 -21.99371,13.94117 -0.95059,0.31023 -5.56537,-2.59998 -10.68753,-6.73986 z"
     id="path19864" />
  <path
     style="fill:#0c69f8;fill-opacity:1;stroke-width:1.12682"
     d="m 354.08997,643.45507 c -40.28239,-11.22599 -78.94618,-26.3722 -103.10411,-40.39016 -13.74197,-7.97397 -36.38149,-23.79677 -45.07283,-31.5015 -6.69459,-5.93463 -6.95067,-5.45082 7.75134,-14.64464 l 10.00498,-6.25656 5.29927,4.4368 c 9.94291,8.32468 33.8192,23.66803 47.51134,30.5317 23.03391,11.54655 50.36695,21.6796 83.52582,30.96516 l 10.98651,3.07659 v 13.93145 c 0,10.43527 -0.35348,13.912 -1.40853,13.85396 -0.77469,-0.0426 -7.7469,-1.84388 -15.49379,-4.0028 z"
     id="path19903" />
  <path
     style="fill:#0c69f8;fill-opacity:1;stroke-width:1.12682"
     d="M 518.52333,769.02151 C 493.99938,751.30561 460.62004,735.0629 425.6431,723.82518 409.76147,718.72259 382.77068,711.33416 350.70951,703.313 296.03157,689.63348 263.28749,679.71588 240.28106,669.86621 212.27053,657.87416 186.30125,642.78653 165.37467,626.3471 c -9.89706,-7.7749 -24.58847,-21.67192 -23.77291,-22.48748 0.28215,-0.28215 5.44599,-3.69797 11.47519,-7.59071 l 10.9622,-7.07772 7.99475,6.97248 c 17.2845,15.07435 35.72069,27.49451 56.79659,38.26294 29.76227,15.20662 54.97647,23.45106 133.14723,43.53594 22.00118,5.6529 46.08698,11.99904 53.52399,14.10254 49.67348,14.04973 88.22114,32.20631 122.68325,57.78582 l 10.00114,7.42335 -3.24022,2.62717 c -1.78212,1.44495 -7.08036,5.082 -11.77388,8.08238 l -8.53365,5.4552 z"
     id="path19942" />
  <path
     style="fill:#0c69f8;fill-opacity:1;stroke-width:1.12682"
     d="m 455.50385,807.43838 c -11.5584,-7.15395 -37.5239,-19.9533 -53.53203,-26.388 -21.247,-8.54055 -43.43148,-15.0324 -105.91312,-30.99337 -60.80705,-15.53322 -91.57108,-25.22103 -105.49634,-33.22154 -11.11995,-6.38877 -57.8333,-36.66957 -73.18418,-47.43986 -12.73985,-8.93838 -16.12017,-13.1248 -17.483938,-21.65335 -0.866017,-5.41579 0.915728,-12.9653 4.036288,-17.10232 l 2.10953,-2.79666 8.80752,8.52247 c 18.85548,18.24522 44.20515,35.84734 69.65585,48.36711 29.85289,14.6853 48.5198,20.73562 123.38689,39.99216 78.63604,20.22591 106.14764,29.40426 138.03555,46.05111 13.47285,7.03335 34.08254,19.44645 39.62502,23.86583 l 2.91594,2.32507 -11.55544,7.54208 c -6.35549,4.14817 -12.12419,7.52422 -12.81932,7.50232 -0.69514,-0.0217 -4.55983,-2.07975 -8.58822,-4.57305 z"
     id="path19981" />
  <path
     style="fill:#0c69f8;fill-opacity:1;stroke-width:1.12682"
     d="m 392.96529,847.12306 c -5.82286,-2.66618 -19.11509,-10.80368 -48.45329,-29.6631 -44.15672,-28.38525 -54.08969,-35.08095 -52.71952,-35.53763 3.08172,-1.02727 51.54549,13.91625 74.69252,23.031 15.29595,6.02318 42.42266,19.54538 53.43982,26.6388 l 7.80358,5.0244 -6.50166,4.15905 c -13.67191,8.74583 -19.94586,10.15493 -28.26145,6.34748 z"
     id="path20020" />
  <path
     fill="#f34f29"
     d="M 500.93042,1454.3054 391.04495,1358.643 c -6.32432,-5.5092 -16.58769,-5.5092 -22.92185,0 l -22.81605,19.867 28.94472,25.1992 c 6.72892,-1.9769 14.4406,-0.6508 19.80156,4.0164 5.38914,4.6969 6.90037,11.468 4.57358,17.3452 l 27.89602,24.2878 c 6.74886,-2.0255 14.53816,-0.7168 19.92517,3.9836 7.53623,6.5556 7.53623,17.1836 0,23.7427 a 19.285183,16.789599 0 0 1 -27.2801,0 19.293158,16.796542 0 0 1 -4.19664,-18.2614 l -26.01396,-22.6476 v 59.6062 a 19.354963,16.850349 0 0 1 5.10204,3.1729 c 7.53225,6.5559 7.53225,17.1801 0,23.7499 -7.53437,6.5557 -19.74599,6.5557 -27.27213,0 -7.53224,-6.5679 -7.53224,-17.1924 0,-23.7499 a 19.239328,16.749678 0 0 1 6.31423,-3.6624 v -60.1581 a 19.101761,16.629913 0 0 1 -6.31423,-3.6642 c -5.706,-4.9642 -7.07954,-12.2542 -4.15277,-18.357 l -28.53614,-24.8432 -75.34639,65.5928 a 16.214865,14.116594 0 0 0 0,19.9607 l 109.8876,95.6624 c 6.32804,5.5091 16.58769,5.5091 22.92557,0 l 109.37109,-95.218 a 16.218853,14.120065 0 0 0 -0.002,-19.9626 z"
     id="path864"
     style="fill:#000000;fill-opacity:1;stroke-width:1.86025" />
</svg>
