<?xml version="1.0" encoding="UTF-8" standalone="no"?>
<svg
   version="1.0"
   width="801.90002pt"
   height="1849.5615pt"
   viewBox="0 0 801.90002 1849.5616"
   preserveAspectRatio="xMidYMid meet"
   id="svg970"
   sodipodi:docname="flux-helmrelease-logo.svg"
   inkscape:version="1.1.2 (0a00cf5339, 2022-02-04)"
   xmlns:inkscape="http://www.inkscape.org/namespaces/inkscape"
   xmlns:sodipodi="http://sodipodi.sourceforge.net/DTD/sodipodi-0.dtd"
   xmlns="http://www.w3.org/2000/svg"
   xmlns:svg="http://www.w3.org/2000/svg">
  <defs
     id="defs974" />
  <sodipodi:namedview
     id="namedview972"
     pagecolor="#ffffff"
     bordercolor="#666666"
     borderopacity="1.0"
     inkscape:pageshadow="2"
     inkscape:pageopacity="0.0"
     inkscape:pagecheckerboard="0"
     inkscape:document-units="pt"
     showgrid="false"
     inkscape:zoom="0.33279468"
     inkscape:cx="569.42017"
     inkscape:cy="2348.2948"
     inkscape:window-width="2525"
     inkscape:window-height="1376"
     inkscape:window-x="70"
     inkscape:window-y="27"
     inkscape:window-maximized="0"
     inkscape:current-layer="svg970" />
  <metadata
     id="metadata936">
Created by potrace 1.16, written by Peter Selinger 2001-2019
</metadata>
  <g
     transform="matrix(0.1,0,0,-0.1,-11,1305.0353)"
     fill="#000000"
     stroke="none"
     id="g968">
    <path
       d="m 4015,13031 c -38,-17 -2765,-1786 -2831,-1837 -50,-37 -84,-116 -84,-193 0,-75 22,-130 72,-178 30,-28 2629,-1723 2643,-1723 3,0 5,284 5,631 0,698 2,680 -64,720 -26,16 -51,19 -160,19 -143,0 -192,14 -230,67 -27,37 -32,111 -11,154 41,78 620,1077 642,1107 64,85 188,82 245,-6 13,-20 165,-282 338,-581 277,-480 313,-548 313,-586 0,-58 -29,-105 -83,-132 -39,-20 -59,-23 -177,-23 h -132 l -36,-31 c -19,-17 -40,-47 -45,-67 -7,-25 -10,-243 -8,-657 l 3,-621 1300,846 c 715,465 1314,855 1331,867 16,12 43,45 59,75 53,96 34,228 -42,300 -30,28 -2757,1804 -2832,1844 -56,30 -156,33 -216,5 z"
       id="path938" />
    <path
       d="m 4400,8405 c 0,-104 0,-105 28,-119 54,-27 330,-125 480,-170 159,-47 183,-53 167,-37 -18,17 -657,431 -666,431 -5,0 -9,-47 -9,-105 z"
       id="path940" />
    <path
       d="m 3430,8259 c -58,-38 -112,-74 -120,-79 -13,-8 -10,-14 15,-35 76,-64 458,-285 493,-285 9,0 12,45 12,158 v 158 l -45,22 c -25,12 -86,47 -136,77 -50,30 -96,55 -102,54 -7,0 -59,-32 -117,-70 z"
       id="path942" />
    <path
       d="m 2818,7862 c -65,-42 -118,-81 -118,-87 1,-27 309,-234 491,-329 185,-97 574,-256 624,-256 13,0 15,25 15,148 v 147 l -143,54 c -246,92 -500,225 -677,354 -35,26 -66,47 -70,46 -3,0 -58,-35 -122,-77 z"
       id="path944" />
    <path
       d="m 4402,7790 3,-153 100,-29 c 55,-16 318,-85 585,-153 267,-68 554,-144 638,-170 558,-169 939,-378 1268,-698 l 111,-107 14,32 c 33,79 7,208 -54,265 -17,17 -278,191 -579,386 -507,330 -553,358 -640,385 -141,45 -386,112 -764,206 -295,74 -610,159 -667,181 -16,7 -17,-3 -15,-145 z"
       id="path946" />
    <path
       d="m 2218,7472 c -65,-42 -118,-80 -118,-83 0,-16 208,-179 340,-267 346,-231 726,-386 1353,-551 l 37,-9 v 147 148 l -148,42 c -440,122 -784,266 -1047,438 -109,72 -243,171 -264,197 -7,9 -19,16 -25,15 -6,0 -64,-35 -128,-77 z"
       id="path948" />
    <path
       d="m 4400,7172 v -150 l 270,-66 c 621,-153 966,-271 1267,-432 192,-103 396,-248 535,-382 44,-42 71,-61 80,-56 55,31 228,148 228,153 0,3 -37,43 -82,88 -292,286 -687,517 -1178,688 -162,56 -451,138 -783,220 -166,42 -310,78 -319,81 -17,5 -18,-6 -18,-144 z"
       id="path950" />
    <path
       d="m 1630,7089 -123,-80 49,-51 c 158,-162 449,-369 692,-492 356,-179 625,-270 1332,-446 435,-109 608,-156 795,-217 362,-118 669,-267 899,-437 42,-31 79,-56 82,-56 11,0 244,155 244,162 0,11 -157,130 -265,201 -281,183 -593,321 -1009,447 -88,26 -352,96 -586,155 -646,162 -917,245 -1180,360 -283,124 -545,292 -746,477 l -60,57 z"
       id="path952" />
    <path
       d="m 1133,6733 c -54,-93 -41,-221 31,-298 45,-48 815,-552 902,-591 180,-79 523,-181 1092,-324 457,-114 705,-185 907,-260 164,-60 462,-204 588,-284 49,-31 93,-56 100,-56 13,0 247,152 247,161 1,22 -314,216 -485,299 -326,158 -589,243 -1325,429 -729,184 -977,266 -1295,429 -238,123 -508,320 -663,485 -29,32 -57,57 -62,57 -5,0 -21,-21 -37,-47 z"
       id="path954" />
    <path
       d="m 4402,6564 3,-146 175,-48 c 563,-154 957,-338 1278,-598 l 94,-75 31,18 c 18,10 74,46 125,80 l 92,62 -42,39 c -309,282 -699,496 -1213,664 -162,53 -506,150 -532,150 -11,0 -13,-27 -11,-146 z"
       id="path956" />
    <path
       d="m 2970,5253 c 0,-13 937,-617 1027,-662 86,-43 121,-48 188,-30 45,12 204,109 205,124 0,15 -190,127 -349,206 -240,118 -513,217 -870,315 -91,24 -174,47 -183,50 -10,3 -18,2 -18,-3 z"
       id="path958" />
    <path
       d="M 1090,3695 C 852,3647 666,3489 586,3268 544,3151 530,3066 523,2878 l -6,-178 H 313 110 V 2520 2340 H 315 520 V 1255 170 h 200 200 v 1085 1085 h 260 260 v 180 180 H 1178 917 l 7,152 c 4,84 13,182 22,217 20,86 68,174 122,221 105,93 290,113 426,46 28,-14 51,-24 52,-23 1,1 24,71 52,155 l 51,154 -62,28 c -117,55 -346,75 -497,45 z"
       id="path960" />
    <path
       d="M 2060,1915 V 170 h 200 200 v 1745 1745 h -200 -200 z"
       id="path962" />
    <path
       d="m 3150,1786 c 0,-561 4,-953 10,-1015 30,-289 141,-471 352,-576 131,-64 248,-88 443,-88 113,0 173,5 245,20 207,44 417,157 586,315 l 64,60 V 336 170 h 205 205 V 1435 2700 H 5055 4850 V 1764 828 l -83,-81 C 4574,558 4349,464 4095,467 c -198,2 -316,43 -408,142 -55,59 -82,110 -110,209 -21,76 -21,94 -25,980 l -3,902 h -200 -199 z"
       id="path964" />
    <path
       d="m 5750,2695 c 0,-2 205,-279 455,-615 273,-367 453,-616 448,-623 -3,-7 -217,-294 -473,-638 -257,-344 -470,-631 -474,-637 -5,-9 49,-12 226,-12 l 233,1 365,500 c 201,275 370,504 375,509 6,5 152,-186 380,-497 203,-278 375,-507 380,-509 6,-3 112,-3 237,-2 l 227,3 -484,645 c -268,357 -480,650 -477,656 4,6 207,279 452,608 245,328 447,601 448,606 2,6 -85,10 -230,10 l -233,-1 -344,-474 c -190,-261 -347,-475 -350,-475 -3,0 -161,214 -351,475 l -345,475 h -232 c -128,0 -233,-2 -233,-5 z"
       id="path966" />
  </g>
  <path
     style="fill:#0c69f8;fill-opacity:1;stroke-width:1.12682"
     d="M 364.79477,390.70409 C 318.09821,360.83752 114.07418,227.61725 108.15091,223.12499 c -8.199338,-6.21846 -10.731818,-19.61169 -5.6237,-29.7414 3.30364,-6.55131 -1.6336,-3.21394 158.03663,-106.826714 C 391.23221,1.7639087 391.69082,1.4797652 398.72041,0.95985471 c 4.65821,-0.3445215 7.65976,0.12596779 11.42269,1.79048849 5.40597,2.3913203 49.40417,30.7012478 176.07198,113.2906668 110.85879,72.28169 110.2529,71.86773 112.70725,77.00445 3.43088,7.18044 3.50926,14.9505 0.22322,22.12813 -1.55664,3.40017 -4.27762,7.23406 -6.04661,8.51975 -6.73802,4.89716 -261.17275,170.20508 -261.48761,169.89022 -0.18211,-0.18209 -0.39007,-28.21756 -0.46214,-62.30101 -0.11614,-54.91784 0.0753,-62.36899 1.68228,-65.47653 3.13485,-6.06214 5.61387,-7.0232 18.13413,-7.03016 13.26251,-0.008 18.60753,-1.25803 23.30165,-5.45221 2.61032,-2.33233 3.57256,-4.32012 4.02217,-8.30898 0.53848,-4.77744 -0.0101,-6.37579 -6.17333,-17.99258 -5.84315,-11.0132 -34.73539,-61.39494 -54.00301,-94.16945 -6.75892,-11.49702 -9.67723,-13.79887 -17.48579,-13.79207 -6.90584,0.006 -11.02138,3.03507 -16.23184,11.94677 -15.33583,26.22956 -50.61698,87.13984 -55.49894,95.81479 -6.35304,11.28895 -7.42936,17.64151 -4.08481,24.10915 2.8258,5.46449 7.38978,7.00609 22.51353,7.6045 14.31804,0.56654 18.61253,1.8232 21.09831,6.17384 1.10434,1.93283 1.52333,15.58252 1.78962,58.30132 0.19123,30.6777 0.19123,59.18833 0,63.35697 l -0.3477,7.57932 z"
     id="path1093" />
  <path
     style="fill:#0c69f8;fill-opacity:1;stroke-width:1.12682"
     d="m 466.20866,488.17646 c -28.09713,-9.43363 -35.28918,-12.32436 -36.13289,-14.52304 -0.32458,-0.84585 -0.44058,-5.44289 -0.25777,-10.21562 l 0.33238,-8.67771 25.91689,16.69941 c 33.69034,21.70821 38.62444,25.08612 36.60664,25.06105 -0.92136,-0.0115 -12.83073,-3.76629 -26.46525,-8.34409 z"
     id="path19669" />
  <path
     style="fill:#0c69f8;fill-opacity:1;stroke-width:1.12682"
     d="M 687.01441,643.99916 C 660.95822,619.83692 636.47,604.266 602.73635,590.41067 577.30184,579.96403 560.9102,575.11234 481.98415,554.6697 c -20.4518,-5.29722 -40.48104,-10.57393 -44.50943,-11.72604 l -7.32434,-2.09472 -0.31642,-14.40655 c -0.29347,-13.362 -0.17092,-14.36466 1.69023,-13.82886 14.8277,4.26861 46.5164,12.72422 76.92666,20.5266 43.07478,11.05172 63.54605,16.78722 70.39353,19.72239 7.1799,3.07767 68.38793,42.1881 106.1782,67.84528 13.36315,9.07273 16.44572,13.62746 16.55333,24.45886 0.117,11.77608 -0.67155,11.71285 -14.5615,-1.1675 z"
     id="path19708" />
  <path
     style="fill:#0c69f8;fill-opacity:1;stroke-width:1.12682"
     d="m 357.12977,511.68032 c -14.4294,-8.07653 -30.58847,-18.09263 -34.19803,-21.19745 l -2.87021,-2.46885 9.40818,-6.25557 c 15.2771,-10.15786 13.23961,-9.8689 24.42883,-3.46454 5.37317,3.07544 11.41739,6.42399 13.43158,7.44123 l 3.66217,1.84952 v 15.18315 c 0,11.41882 -0.34922,15.17222 -1.40853,15.13906 -0.77469,-0.0242 -6.37899,-2.8262 -12.45399,-6.22655 z"
     id="path19747" />
  <path
     style="fill:#0c69f8;fill-opacity:1;stroke-width:1.12682"
     d="m 367.04841,584.73866 c -8.48529,-2.10896 -48.4568,-19.38447 -62.25907,-26.90808 -9.51423,-5.18622 -36.58028,-22.88274 -42.32869,-27.67566 l -3.17389,-2.64633 11.42501,-7.59587 c 6.28374,-4.17773 11.76855,-7.59081 12.18845,-7.58462 0.41989,0.006 6.08767,3.59183 12.59506,7.96811 14.05704,9.45348 43.77972,24.49531 62.25647,31.50627 l 13.23975,5.02379 3.9e-4,14.36697 c 2.2e-4,7.90183 -0.37991,14.30815 -0.84472,14.23626 -0.46481,-0.0719 -1.85926,-0.38277 -3.09876,-0.69084 z"
     id="path19786" />
  <path
     style="fill:#0c69f8;fill-opacity:1;stroke-width:1.12682"
     d="M 634.05408,687.93227 C 602.6016,659.66341 567.64244,641.2542 513.47002,624.43368 c -13.40259,-4.16149 -65.5352,-17.92187 -80.78429,-21.32296 l -3.09876,-0.69114 v -14.06379 c 0,-9.91339 0.38553,-14.06379 1.30639,-14.06379 2.38192,0 71.07007,18.00651 88.83929,23.28912 25.99636,7.72843 42.13428,14.01717 65.91902,25.68778 30.37822,14.90588 56.92234,33.30022 75.32356,52.19715 l 5.46066,5.60777 -11.2019,7.45743 c -6.16106,4.10157 -11.43013,7.45741 -11.70907,7.45741 -0.27893,0 -4.5408,-3.62538 -9.47084,-8.05639 z"
     id="path19825" />
  <path
     style="fill:#0c69f8;fill-opacity:1;stroke-width:1.12682"
     d="m 574.38346,726.84764 c -4.95801,-4.0072 -13.57819,-10.34537 -19.15595,-14.0848 -13.09552,-8.77948 -44.26181,-24.08464 -63.75465,-31.30868 -14.38935,-5.33268 -57.004,-18.14331 -60.35387,-18.14331 -1.20976,0 -1.53202,-2.96274 -1.53202,-14.08526 0,-12.66444 0.19892,-14.08497 1.97194,-14.08233 1.08457,10e-4 9.32444,2.05454 18.31084,4.56207 56.78465,15.84498 91.95382,30.94001 126.20394,54.16823 14.37407,9.74841 31.89129,24.31609 30.99101,25.77277 -0.71867,1.16285 -19.6937,13.19057 -21.99371,13.94117 -0.95059,0.31023 -5.56537,-2.59998 -10.68753,-6.73986 z"
     id="path19864" />
  <path
     style="fill:#0c69f8;fill-opacity:1;stroke-width:1.12682"
     d="m 354.08997,643.45507 c -40.28239,-11.22599 -78.94618,-26.3722 -103.10411,-40.39016 -13.74197,-7.97397 -36.38149,-23.79677 -45.07283,-31.5015 -6.69459,-5.93463 -6.95067,-5.45082 7.75134,-14.64464 l 10.00498,-6.25656 5.29927,4.4368 c 9.94291,8.32468 33.8192,23.66803 47.51134,30.5317 23.03391,11.54655 50.36695,21.6796 83.52582,30.96516 l 10.98651,3.07659 v 13.93145 c 0,10.43527 -0.35348,13.912 -1.40853,13.85396 -0.77469,-0.0426 -7.7469,-1.84388 -15.49379,-4.0028 z"
     id="path19903" />
  <path
     style="fill:#0c69f8;fill-opacity:1;stroke-width:1.12682"
     d="M 518.52333,769.02151 C 493.99938,751.30561 460.62004,735.0629 425.6431,723.82518 409.76147,718.72259 382.77068,711.33416 350.70951,703.313 296.03157,689.63348 263.28749,679.71588 240.28106,669.86621 212.27053,657.87416 186.30125,642.78653 165.37467,626.3471 c -9.89706,-7.7749 -24.58847,-21.67192 -23.77291,-22.48748 0.28215,-0.28215 5.44599,-3.69797 11.47519,-7.59071 l 10.9622,-7.07772 7.99475,6.97248 c 17.2845,15.07435 35.72069,27.49451 56.79659,38.26294 29.76227,15.20662 54.97647,23.45106 133.14723,43.53594 22.00118,5.6529 46.08698,11.99904 53.52399,14.10254 49.67348,14.04973 88.22114,32.20631 122.68325,57.78582 l 10.00114,7.42335 -3.24022,2.62717 c -1.78212,1.44495 -7.08036,5.082 -11.77388,8.08238 l -8.53365,5.4552 z"
     id="path19942" />
  <path
     style="fill:#0c69f8;fill-opacity:1;stroke-width:1.12682"
     d="m 455.50385,807.43838 c -11.5584,-7.15395 -37.5239,-19.9533 -53.53203,-26.388 -21.247,-8.54055 -43.43148,-15.0324 -105.91312,-30.99337 -60.80705,-15.53322 -91.57108,-25.22103 -105.49634,-33.22154 -11.11995,-6.38877 -57.8333,-36.66957 -73.18418,-47.43986 -12.73985,-8.93838 -16.12017,-13.1248 -17.483938,-21.65335 -0.866017,-5.41579 0.915728,-12.9653 4.036288,-17.10232 l 2.10953,-2.79666 8.80752,8.52247 c 18.85548,18.24522 44.20515,35.84734 69.65585,48.36711 29.85289,14.6853 48.5198,20.73562 123.38689,39.99216 78.63604,20.22591 106.14764,29.40426 138.03555,46.05111 13.47285,7.03335 34.08254,19.44645 39.62502,23.86583 l 2.91594,2.32507 -11.55544,7.54208 c -6.35549,4.14817 -12.12419,7.52422 -12.81932,7.50232 -0.69514,-0.0217 -4.55983,-2.07975 -8.58822,-4.57305 z"
     id="path19981" />
  <path
     style="fill:#0c69f8;fill-opacity:1;stroke-width:1.12682"
     d="m 392.96529,847.12306 c -5.82286,-2.66618 -19.11509,-10.80368 -48.45329,-29.6631 -44.15672,-28.38525 -54.08969,-35.08095 -52.71952,-35.53763 3.08172,-1.02727 51.54549,13.91625 74.69252,23.031 15.29595,6.02318 42.42266,19.54538 53.43982,26.6388 l 7.80358,5.0244 -6.50166,4.15905 c -13.67191,8.74583 -19.94586,10.15493 -28.26145,6.34748 z"
     id="path20020" />
  <path
     d="m 405.8704,1353.7476 c -1.05657,0.2895 -16.31336,7.3612 -33.8946,15.6736 -17.6235,8.3538 -32.24636,15.2188 -32.54219,15.2601 -0.29585,0.083 -0.63394,0.2482 -0.76072,0.4136 -0.38037,0.4549 -11.83353,5.6657 -11.83353,5.3762 0,-0.1655 -0.16906,-0.083 -0.33811,0.2067 -0.38037,0.579 -11.91805,5.9966 -11.91805,5.583 0,-0.1654 -0.16904,-0.083 -0.3381,0.2068 -0.38036,0.579 -11.91805,5.9965 -11.91805,5.5829 0,-0.1654 -0.16905,-0.083 -0.3381,0.2068 -0.38036,0.579 -11.91805,5.9965 -11.91805,5.583 0,-0.1654 -0.16906,-0.083 -0.3381,0.2068 -0.38036,0.5789 -11.91805,5.9965 -11.91805,5.5829 0,-0.1654 -0.16905,-0.083 -0.3381,0.2068 -0.38037,0.579 -11.91806,5.9965 -11.91806,5.583 0,-0.1655 -0.16904,-0.083 -0.3381,0.2067 -0.38036,0.579 -11.91804,5.9966 -11.91804,5.583 0,-0.1654 -0.16905,-0.083 -0.3381,0.2068 -0.38036,0.5789 -11.91805,5.9965 -11.91805,5.5829 0,-0.1654 -0.16906,-0.083 -0.33811,0.1655 -0.29583,0.4549 -22.86406,11.2486 -23.87836,11.4554 -0.29584,0.041 -0.59168,0.2067 -0.71847,0.3722 -0.12678,0.124 -2.62027,1.3647 -5.53639,2.7294 -5.49414,2.5227 -8.11443,4.425 -9.76266,7.0304 -0.50715,0.8685 -1.09883,1.6542 -1.31015,1.7783 -0.21131,0.1241 -0.3381,0.3722 -0.3381,0.5376 0.0423,0.1241 0.0423,0.2895 0,0.3308 -0.46488,1.4475 -0.59167,23.738 -0.59167,123.5696 0,116.4564 0,119.3513 0.80299,121.5845 0.46489,1.2407 0.80298,2.3572 0.80298,2.4813 0.0423,0.1241 0.97205,1.158 2.1554,2.3159 1.52146,1.4888 4.43757,3.3498 9.97397,6.3687 4.31079,2.3573 32.16183,17.576 61.9147,33.8286 29.75287,16.2527 54.22291,29.7345 54.39196,30.024 0.16904,0.2481 0.33809,0.3308 0.33809,0.1654 0,-0.3309 6.88881,3.3498 7.2269,3.8874 0.1268,0.2067 0.33811,0.3722 0.42264,0.3308 0.38035,-0.1654 2.49349,0.9925 2.49349,1.3234 0,0.2068 0.21131,0.2481 0.42262,0.124 0.25358,-0.124 0.42262,-0.041 0.42262,0.1655 0,0.2481 0.1268,0.4135 0.33811,0.3722 0.38036,-0.1241 2.32444,0.9098 2.66254,1.406 0.12679,0.2068 0.50715,0.455 0.84525,0.4963 0.92978,0.1654 2.91612,1.1993 2.91612,1.4888 0,0.1654 0.25358,0.2895 0.54942,0.2895 0.63393,0.041 28.73855,15.3841 29.07665,15.9218 0.1268,0.2067 0.42263,0.4135 0.63394,0.4135 0.803,0.041 2.28218,0.9098 2.28218,1.282 0,0.2482 0.12679,0.2895 0.25359,0.1655 0.38035,-0.3309 3.55005,1.406 3.55005,1.9437 0,0.2067 0.12679,0.2481 0.29584,0.124 0.25357,-0.2895 3.08517,1.1993 3.55006,1.9024 0.12678,0.2067 0.42262,0.3722 0.63393,0.3722 0.80299,0.041 2.28218,0.9098 2.28218,1.282 0,0.2481 0.12679,0.2895 0.25358,0.1654 0.38037,-0.3309 3.55006,1.4061 3.55006,1.9437 0,0.2068 0.12679,0.2481 0.25357,0.1241 0.16905,-0.1655 0.84526,0.124 1.52146,0.6203 0.6762,0.4549 2.40896,1.4061 3.80363,2.0677 1.39466,0.6617 2.8316,1.4475 3.16969,1.7783 0.29584,0.3309 1.26788,0.7858 2.1554,1.0339 4.8602,1.3647 8.36799,0.8685 13.05914,-1.9023 1.6905,-0.9926 3.25422,-1.8197 3.46553,-1.8197 0.21131,0 1.39466,-0.6617 2.62028,-1.4474 1.22562,-0.7858 3.67685,-2.1091 5.40961,-2.9776 1.77503,-0.8271 3.29649,-1.6542 3.42327,-1.7783 0.42262,-0.5789 6.29713,-3.6392 6.50844,-3.3911 0.12678,0.1241 0.25358,0 0.25358,-0.2895 0,-0.2895 0.16905,-0.4135 0.38036,-0.2895 0.21132,0.1655 0.46488,0.083 0.54942,-0.124 0.0422,-0.2068 26.83674,-14.9706 59.50571,-32.8361 32.669,-17.8241 70.66307,-38.6258 84.48293,-46.1525 13.81987,-7.568 25.31529,-13.7713 25.5266,-13.8127 0.25358,-0.041 0.76074,-0.2894 1.09884,-0.5789 0.38036,-0.2895 1.60598,-1.1166 2.78933,-1.861 1.14109,-0.7444 2.70481,-2.1919 3.46552,-3.2257 0.76073,-1.0339 1.606,-2.1092 1.85956,-2.3986 0.21131,-0.2482 0.33811,-0.4963 0.25358,-0.4963 -0.12679,0 0.0845,-1.0752 0.38036,-2.3986 0.46489,-1.9437 0.59168,-22.7041 0.59168,-120.8401 0,-131.3444 0.21131,-121.7086 -2.78933,-126.0095 -0.803,-1.158 -2.28218,-2.6468 -3.25423,-3.3084 -0.97203,-0.6204 -1.85954,-1.2821 -1.90181,-1.4888 -0.0845,-0.1655 -0.33809,-0.2068 -0.54941,-0.041 -0.21132,0.124 -0.38036,0 -0.38036,-0.2895 0,-0.2895 -0.1268,-0.4136 -0.25358,-0.2895 -0.29584,0.3308 -11.66447,-4.9626 -12.0871,-5.583 -0.16905,-0.2895 -0.3381,-0.3722 -0.3381,-0.2067 0,0.4135 -11.53769,-5.004 -11.91806,-5.583 -0.16904,-0.2895 -0.3381,-0.3722 -0.3381,-0.2068 0,0.4136 -11.53769,-5.004 -11.91805,-5.5829 -0.16905,-0.2895 -0.33809,-0.3722 -0.33809,-0.2068 0,0.4135 -11.53769,-5.004 -11.91805,-5.583 -0.16906,-0.2895 -0.33811,-0.3722 -0.33811,-0.2068 0,0.2895 -11.45316,-4.9212 -11.83352,-5.3761 -0.12679,-0.1655 -0.46489,-0.3309 -0.76072,-0.4136 -1.09884,-0.2068 -110.17859,-51.9009 -110.47443,-52.3558 -0.16904,-0.2481 -0.3381,-0.3308 -0.3381,-0.1654 0,0.4136 -10.69243,-4.5904 -11.07279,-5.1694 -0.16906,-0.2895 -0.33811,-0.3722 -0.33811,-0.2068 0,0.1654 -3.21195,-1.1993 -7.18464,-3.0603 -7.86083,-3.6392 -10.26981,-4.1355 -13.94665,-3.0603 z m 96.57002,62.157 c 50.88416,24.0274 92.80865,43.8779 93.10449,44.0847 0.29583,0.2481 0.38036,0.5376 0.21131,0.703 -0.50715,0.4549 -184.34942,95.5721 -185.6173,96.0683 -1.0143,0.3722 -9.9317,-4.1769 -93.44258,-47.3931 -50.79964,-26.2606 -92.72413,-48.0549 -93.18902,-48.3857 -0.46489,-0.3308 -0.71846,-0.7444 -0.59168,-0.8685 0.50715,-0.5376 185.70183,-87.8799 186.33577,-87.9213 0.3381,0 42.26259,19.6851 93.18901,43.7126 z m -192.54836,100.2865 c 50.58832,26.1779 92.68186,48.0548 93.56937,48.5924 l 1.56371,0.9512 v 114.9677 c 0,96.3577 -0.0845,114.9676 -0.59167,114.9676 -0.29584,0 -35.33153,-19.0234 -77.84769,-42.2237 -42.51616,-23.2417 -84.65196,-46.2766 -93.65391,-51.1978 l -16.39788,-8.9328 V 1580.664 c 0,-103.3055 0.0423,-112.6104 0.6762,-112.3623 0.38036,0.1241 42.09354,21.6702 92.68187,47.8894 z m 292.41486,64.5142 -0.12678,112.5277 -39.30422,21.4634 c -128.35148,70.1385 -148.2149,80.9736 -148.59527,80.9736 -0.54941,0 -0.71846,-229.5631 -0.16904,-230.2248 0.54941,-0.6617 187.01196,-97.3089 187.77269,-97.3089 0.42262,0 0.50715,22.6213 0.42262,112.569 z"
     id="path888"
     style="stroke-width:0.0418064" />
  <path
     d="m 258.28943,1546.3391 c -2.62028,1.4888 2.57802,15.6736 9.55134,26.0952 0.67621,1.0338 0.67621,1.0338 -1.85955,2.564 -3.16969,1.9023 -7.18464,5.707 -7.18464,6.7409 0,0.703 5.49413,7.2372 6.25486,7.4853 0.21132,0.041 1.52146,-0.9512 2.91613,-2.2745 3.08516,-2.9363 5.62092,-4.3423 9.84718,-5.4589 5.32509,-1.4475 13.14367,-0.9512 19.01816,1.2406 1.26788,0.4549 2.87386,0.9926 3.5078,1.1993 0.6762,0.2068 2.78933,1.1993 4.69115,2.1919 15.04548,7.9815 29.07666,22.7867 37.90954,39.9905 1.43693,2.8535 2.8316,5.2935 3.08517,5.4589 0.54941,0.3308 6.25486,-0.083 6.76202,-0.5376 0.46488,-0.4136 -3.88817,-9.2222 -7.26917,-14.7225 -1.43693,-2.3159 -2.62028,-4.3009 -2.62028,-4.425 0,-0.083 0.71847,-0.6203 1.60598,-1.1166 4.8602,-2.8949 8.53703,-7.3199 9.3823,-11.3313 0.5494,-2.6054 0.25356,-3.9702 -1.1411,-5.3349 -3.12743,-3.1016 -10.31207,-0.7857 -15.93299,5.1281 l -2.02861,2.1091 -2.87385,-3.0189 c -5.11378,-5.4589 -12.21389,-11.8276 -15.63716,-14.1022 -0.59168,-0.3722 -2.23992,-1.4888 -3.71911,-2.4399 -1.43694,-0.9512 -2.53576,-1.9851 -2.45123,-2.2332 0.12679,-0.2895 0.3381,-2.2332 0.46489,-4.3837 0.59168,-8.1056 -1.43693,-18.155 -4.22626,-20.8844 -1.6905,-1.6542 -2.45123,-1.6956 -3.80364,-0.2895 -1.98633,2.0678 -2.91611,7.6921 -2.66254,15.3428 0.12679,3.1844 0.0845,5.5003 -0.16905,5.5003 -0.21132,0 -1.05656,-0.2895 -1.94408,-0.6617 -4.81793,-2.0264 -10.56565,-3.0603 -16.77825,-3.0603 l -4.69114,-0.041 -2.49349,-5.2521 c -4.26853,-8.85 -9.55136,-16.6248 -12.80557,-18.858 -1.81729,-1.1993 -1.73277,-1.1993 -2.70481,-0.6204 z"
     id="path890"
     style="fill:#10168a;fill-opacity:1;stroke-width:0.0414773;stroke-miterlimit:4;stroke-dasharray:none" />
  <path
     d="m 233.0164,1577.521 c 0,0.124 0,9.0981 0,19.9332 0,15.4255 0.0845,19.8505 0.50715,20.2227 0.76073,0.7031 9.0442,5.1281 9.59362,5.1281 0.33809,0 0.46487,-2.3986 0.46487,-7.3613 0,-4.0528 0.0845,-7.4853 0.21132,-7.6093 0.12679,-0.1241 2.70481,1.0752 5.70544,2.6881 l 5.49414,2.8948 0.0845,8.0643 0.12678,8.0229 4.8602,2.6054 c 2.66255,1.4475 4.98698,2.5227 5.1983,2.3159 0.16904,-0.1654 0.25358,-9.3876 0.21131,-20.4708 l -0.12679,-20.1814 -4.56435,-2.44 c -2.49349,-1.3233 -4.81794,-2.4399 -5.15604,-2.4399 -0.54941,0 -0.63395,1.1166 -0.63395,7.0304 v 7.0304 l -3.67684,-1.9437 c -2.07086,-1.0753 -4.56435,-2.44 -5.62092,-3.019 l -1.90182,-1.0752 -0.21131,-7.3613 -0.21132,-7.3612 -4.60661,-2.44 c -4.184,-2.1918 -5.74772,-2.8121 -5.74772,-2.2331 z"
     id="path892"
     style="fill:#10168a;fill-opacity:1;stroke-width:0.0414773;stroke-miterlimit:4;stroke-dasharray:none" />
  <path
     d="m 273.41944,1598.2813 c -0.12678,0.1654 -0.25358,9.429 -0.25358,20.5949 v 20.3468 l 13.22819,7.0718 c 7.26916,3.9287 13.35498,7.1131 13.52403,7.1131 0.16905,0 0.29585,-2.0264 0.29585,-4.5077 v -4.5078 l -8.0299,-4.2596 -8.02989,-4.2596 v -3.4738 -3.4738 l 1.81729,1.0338 c 6.5507,3.6807 10.86148,5.7071 11.0728,5.1695 0.12679,-0.3309 0.16905,-2.44 0.12679,-4.6732 l -0.12679,-4.0528 -6.33939,-3.3911 -6.33939,-3.4325 -0.12678,-3.3912 -0.1268,-3.3497 2.66254,1.406 c 7.52276,4.0942 11.49544,6.0793 12.04485,6.0793 0.46488,0 0.54941,-0.8685 0.46488,-4.425 l -0.12679,-4.3837 -10.14301,-5.3348 c -5.57867,-2.9363 -11.32638,-5.9552 -12.7633,-6.7409 -1.39467,-0.7444 -2.70482,-1.2821 -2.8316,-1.158 z"
     id="path894"
     style="fill:#10168a;fill-opacity:1;stroke-width:0.0418064" />
  <path
     d="m 307.22952,1616.1054 c -0.1268,0.1241 -0.25359,9.4704 -0.25359,20.7604 v 20.5122 l 12.84783,6.9063 c 7.05785,3.8047 13.05915,6.9064 13.31272,6.9064 0.29584,0 0.46489,-1.4888 0.46489,-4.3424 v -4.3423 l -1.77504,-1.0752 c -1.01429,-0.579 -4.47982,-2.4813 -7.73404,-4.2182 l -5.91676,-3.1844 -0.21132,-16.294 -0.21131,-16.3353 -1.90182,-1.0752 c -4.35305,-2.4813 -8.41025,-4.4664 -8.62156,-4.2183 z"
     id="path896"
     style="fill:#10168a;fill-opacity:1;stroke-width:0.0418064" />
  <path
     d="m 340.36338,1654.4004 v 20.8844 l 4.26852,2.3573 c 6.42392,3.5152 5.87451,3.8874 5.87451,-3.7634 0,-3.5565 -0.29584,-8.8086 -0.63394,-11.6621 -0.38037,-2.8536 -0.59168,-5.2935 -0.4649,-5.4176 0.1268,-0.124 0.33811,0.041 0.42263,0.3722 0.0845,0.3309 0.76073,2.44 1.47919,4.7145 1.05657,3.4739 3.93043,12.6547 5.57867,17.8655 0.3381,1.0339 1.05656,1.6542 3.16969,2.8122 1.47919,0.8271 2.87386,1.406 3.08518,1.282 0.16904,-0.1241 2.15539,-3.9701 4.31077,-8.5606 2.19766,-4.5904 4.01494,-8.0643 4.09948,-7.6921 0.0845,0.3722 -0.0845,2.0265 -0.38037,3.6807 -0.29584,1.6542 -0.59167,6.8649 -0.67621,11.5794 l -0.16904,8.5192 4.31078,2.3573 c 2.36671,1.3233 4.64889,2.4813 5.07152,2.564 0.76072,0.2068 0.80298,-0.4549 0.80298,-20.5949 0,-11.4554 -0.16905,-21.0499 -0.3381,-21.298 -0.50715,-0.7444 -9.9317,-5.583 -10.60791,-5.4589 -0.42262,0.083 -2.07086,3.6393 -4.47983,9.5117 -2.07087,5.1694 -3.93042,9.429 -4.05722,9.429 -0.12678,0 -0.67619,-1.4474 -1.18335,-3.2257 -2.07087,-6.989 -3.67684,-12.6547 -5.57865,-19.3129 -0.76073,-2.7294 -1.6905,-5.2521 -2.02861,-5.6243 -0.6762,-0.703 -10.90374,-6.1619 -11.53769,-6.1619 -0.16905,0 -0.3381,9.3876 -0.3381,20.843 z"
     id="path898"
     style="fill:#10168a;fill-opacity:1;stroke-width:0.0414773;stroke-miterlimit:4;stroke-dasharray:none" />
  <path
     d="m 263.65678,1642.4074 c -1.3524,0.3308 -2.15539,0.7444 -2.23992,1.1579 -0.12678,0.6204 4.05721,8.6019 5.78998,11.0832 1.39466,1.9851 1.39466,2.0265 -0.4649,2.9363 -2.53574,1.2406 -6.71974,5.5416 -8.07215,8.1883 -2.07087,4.0942 -1.18335,8.2711 1.90183,8.9741 1.98633,0.4549 2.0286,0.4549 4.3953,-0.041 3.00065,-0.6617 5.83224,-2.3572 8.74836,-5.2935 l 2.45123,-2.4399 1.56371,1.7782 c 5.45188,6.2861 14.66512,14.5985 20.75094,18.6926 l 1.6905,1.158 -0.25358,5.4589 c -0.54941,12.2411 2.74707,22.6213 6.84654,21.6288 2.57802,-0.6617 4.31079,-8.3951 3.80364,-16.9143 -0.16905,-2.44 -0.12679,-4.425 0.0423,-4.425 0.21132,0 1.73277,0.5376 3.33874,1.1993 4.64889,1.8196 10.39661,2.9775 15.84848,3.143 l 4.81793,0.1654 1.73277,3.846 c 3.71911,8.2711 9.67814,17.4933 13.48176,20.9258 7.6918,6.9063 4.26853,-8.3951 -5.24055,-23.7793 -0.92978,-1.4888 -1.6905,-2.8121 -1.6905,-2.9776 0,-0.1654 0.63393,-0.5789 1.39466,-0.9511 1.77502,-0.8271 5.70545,-3.722 5.95902,-4.3423 0.21132,-0.4963 -3.29648,-5.2522 -5.57866,-7.6508 l -1.05656,-1.1166 -1.73277,1.3648 c -3.84589,3.0603 -7.73405,4.3836 -13.7776,4.5904 -8.49478,0.3722 -17.11635,-2.3986 -26.58317,-8.3951 -12.80557,-8.1057 -24.47004,-21.1326 -32.41541,-36.0618 -1.39467,-2.564 -1.90182,-2.7295 -5.45188,-1.9024 z"
     id="path900"
     style="fill:#10168a;fill-opacity:1;stroke-width:0.0414773;stroke-miterlimit:4;stroke-dasharray:none" />
  <path
     d="m 558.64966,1518.2175 c -6.25486,3.4325 -11.83352,6.6996 -12.34067,7.2372 l -0.97204,1.0339 v 85.8949 c 0,68.1948 0.12679,86.1016 0.54942,86.9287 1.01429,1.9851 2.0286,1.6129 14.4538,-5.1694 6.50843,-3.5565 12.04484,-6.6582 12.34067,-6.9063 0.71847,-0.579 0.803,-173.1959 0.1268,-174.4779 -0.29584,-0.4963 -0.88752,-0.7857 -1.60599,-0.7857 -0.67619,0 -5.74771,2.5226 -12.55199,6.2446 z m 9.93172,83.2482 v 82.8759 l -8.74837,4.7972 c -4.77566,2.6468 -8.95967,4.7973 -9.29776,4.7973 -0.46489,0 -0.54941,-13.9368 -0.54941,-82.7106 v -82.7105 l 1.14109,-0.7031 c 2.32444,-1.5301 16.44015,-9.1808 16.9473,-9.1808 0.38036,-0.041 0.50715,16.7902 0.50715,82.8346 z"
     id="path902"
     style="stroke-width:0.0418064" />
  <path
     d="m 511.52688,1543.1961 c -6.38165,3.5152 -11.96031,6.7823 -12.34068,7.2785 -0.71846,0.8271 -0.76073,5.583 -0.76073,86.9701 0,77.2517 0.0845,86.1844 0.6762,87.0115 0.33811,0.4963 1.09883,0.9099 1.64825,0.9099 1.18335,0 24.21647,-12.448 25.06171,-13.5232 0.38036,-0.5376 0.50715,-18.6512 0.50715,-87.1769 0,-83.2895 -0.0422,-86.5566 -0.76072,-87.1769 -0.42263,-0.4136 -1.14109,-0.7031 -1.60599,-0.7031 -0.42262,0.041 -6.04355,2.8949 -12.42519,6.4101 z m 10.05849,83.1654 -0.12679,82.9174 -8.66383,4.7558 c -4.77567,2.6054 -8.9174,4.7145 -9.17098,4.7145 -0.42262,0 -0.54941,-16.5421 -0.54941,-82.7105 v -82.7519 l 1.56371,-0.9098 c 5.02925,-2.9363 16.05978,-8.9328 16.52468,-8.9328 0.42262,-0.041 0.50714,16.6662 0.42262,82.9173 z"
     id="path904"
     style="stroke-width:0.0418064" />
  <path
     d="m 464.23504,1570.2838 c -6.59296,3.5979 -12.17164,6.7823 -12.34068,7.1131 -0.21131,0.2895 -0.38036,39.4943 -0.38036,87.0528 v 86.5566 l 0.88751,0.8685 c 0.54941,0.5376 1.14109,0.7444 1.64825,0.579 1.64823,-0.4963 24.30098,-13.0683 24.8504,-13.73 0.38036,-0.5376 0.50715,-18.6099 0.50715,-86.9701 0,-77.3757 -0.0845,-86.3498 -0.6762,-87.1769 -0.33811,-0.4963 -1.05657,-0.9099 -1.56372,-0.9099 -0.50715,0.041 -6.33939,2.9776 -12.93235,6.6169 z m 10.43886,82.9587 -0.12679,82.9586 -8.66383,4.7559 c -4.77567,2.6054 -8.91741,4.8386 -9.17098,4.9626 -0.42263,0.1654 -0.54942,-16.5421 -0.54942,-82.7519 v -83 l 1.56372,-0.9098 c 4.5221,-2.6468 16.05979,-8.8914 16.52467,-8.9328 0.42263,-0.041 0.50715,16.6662 0.42263,82.9174 z"
     id="path906"
     style="stroke-width:0.0418064" />
</svg>
