<?xml version="1.0" encoding="UTF-8" standalone="no"?>
<svg
   version="1.0"
   width="998.000000pt"
   height="1123.000000pt"
   viewBox="0 0 998.000000 1123.000000"
   preserveAspectRatio="xMidYMid meet"
   id="svg910"
   sodipodi:docname="helm-release-logo.svg"
   inkscape:version="1.1.2 (0a00cf5339, 2022-02-04)"
   xmlns:inkscape="http://www.inkscape.org/namespaces/inkscape"
   xmlns:sodipodi="http://sodipodi.sourceforge.net/DTD/sodipodi-0.dtd"
   xmlns="http://www.w3.org/2000/svg"
   xmlns:svg="http://www.w3.org/2000/svg">
  <defs
     id="defs914" />
  <sodipodi:namedview
     id="namedview912"
     pagecolor="#ffffff"
     bordercolor="#666666"
     borderopacity="1.0"
     inkscape:pageshadow="2"
     inkscape:pageopacity="0.0"
     inkscape:pagecheckerboard="0"
     inkscape:document-units="pt"
     showgrid="false"
     inkscape:zoom="0.38969279"
     inkscape:cx="2188.9037"
     inkscape:cy="1071.3568"
     inkscape:window-width="5050"
     inkscape:window-height="1376"
     inkscape:window-x="70"
     inkscape:window-y="27"
     inkscape:window-maximized="1"
     inkscape:current-layer="g908" />
  <metadata
     id="metadata886">
Created by potrace 1.16, written by Peter Selinger 2001-2019
</metadata>
  <g
     transform="translate(0.000000,1123.000000) scale(0.100000,-0.100000)"
     fill="#000000"
     stroke="none"
     id="g908">
    <path
       d="M4910 11216 c-25 -7 -386 -178 -802 -379 -417 -202 -763 -368 -770 -369 -7 -2 -15 -6 -18 -10 -9 -11 -280 -137 -280 -130 0 4 -4 2 -8 -5 -9 -14 -282 -145 -282 -135 0 4 -4 2 -8 -5 -9 -14 -282 -145 -282 -135 0 4 -4 2 -8 -5 -9 -14 -282 -145 -282 -135 0 4 -4 2 -8 -5 -9 -14 -282 -145 -282 -135 0 4 -4 2 -8 -5 -9 -14 -282 -145 -282 -135 0 4 -4 2 -8 -5 -9 -14 -282 -145 -282 -135 0 4 -4 2 -8 -5 -9 -14 -282 -145 -282 -135 0 4 -4 2 -8 -4 -7 -11 -541 -272 -565 -277 -7 -1 -14 -5 -17 -9 -3 -3 -62 -33 -131 -66 -130 -61 -192 -107 -231 -170 -12 -21 -26 -40 -31 -43 -5 -3 -8 -9 -8 -13 1 -3 1 -7 0 -8 -11 -35 -14 -574 -14 -2988 0 -2816 0 -2886 19 -2940 11 -30 19 -57 19 -60 1 -3 23 -28 51 -56 36 -36 105 -81 236 -154 102 -57 761 -425 1465 -818 704 -393 1283 -719 1287 -726 4 -6 8 -8 8 -4 0 8 163 -81 171 -94 3 -5 8 -9 10 -8 9 4 59 -24 59 -32 0 -5 5 -6 10 -3 6 3 10 1 10 -4 0 -6 3 -10 8 -9 9 3 55 -22 63 -34 3 -5 12 -11 20 -12 22 -4 69 -29 69 -36 0 -4 6 -7 13 -7 15 -1 680 -372 688 -385 3 -5 10 -10 15 -10 19 -1 54 -22 54 -31 0 -6 3 -7 6 -4 9 8 84 -34 84 -47 0 -5 3 -6 7 -3 6 7 73 -29 84 -46 3 -5 10 -9 15 -9 19 -1 54 -22 54 -31 0 -6 3 -7 6 -4 9 8 84 -34 84 -47 0 -5 3 -6 6 -3 4 4 20 -3 36 -15 16 -11 57 -34 90 -50 33 -16 67 -35 75 -43 7 -8 30 -19 51 -25 115 -33 198 -21 309 46 40 24 77 44 82 44 5 0 33 16 62 35 29 19 87 51 128 72 42 20 78 40 81 43 10 14 149 88 154 82 3 -3 6 0 6 7 0 7 4 10 9 7 5 -4 11 -2 13 3 1 5 635 362 1408 794 773 431 1672 934 1999 1116 327 183 599 333 604 334 6 1 18 7 26 14 9 7 38 27 66 45 27 18 64 53 82 78 18 25 38 51 44 58 5 6 8 12 6 12 -3 0 2 26 9 58 11 47 14 549 14 2922 0 3176 5 2943 -66 3047 -19 28 -54 64 -77 80 -23 15 -44 31 -45 36 -2 4 -8 5 -13 1 -5 -3 -9 0 -9 7 0 7 -3 10 -6 7 -7 -8 -276 120 -286 135 -4 7 -8 9 -8 5 0 -10 -273 121 -282 135 -4 7 -8 9 -8 5 0 -10 -273 121 -282 135 -4 7 -8 9 -8 5 0 -10 -273 121 -282 135 -4 7 -8 9 -8 5 0 -7 -271 119 -280 130 -3 4 -11 8 -18 10 -26 5 -2607 1255 -2614 1266 -4 6 -8 8 -8 4 0 -10 -253 111 -262 125 -4 7 -8 9 -8 5 0 -4 -76 29 -170 74 -186 88 -243 100 -330 74z m2285 -1503 c1204 -581 2196 -1061 2203 -1066 7 -6 9 -13 5 -17 -12 -11 -4362 -2311 -4392 -2323 -24 -9 -235 101 -2211 1146 -1202 635 -2194 1162 -2205 1170 -11 8 -17 18 -14 21 12 13 4394 2125 4409 2126 8 0 1000 -476 2205 -1057z m-4556 -2425 c1197 -633 2193 -1162 2214 -1175 l37 -23 0 -2780 c0 -2330 -2 -2780 -14 -2780 -7 0 -836 460 -1842 1021 -1006 562 -2003 1119 -2216 1238 l-388 216 0 2724 c0 2498 1 2723 16 2717 9 -3 996 -524 2193 -1158z m6919 -1560 l-3 -2721 -930 -519 c-3037 -1696 -3507 -1958 -3516 -1958 -13 0 -17 5551 -4 5567 13 16 4425 2353 4443 2353 10 0 12 -547 10 -2722z"
       id="path888" />
    <path
       d="M1418 6559 c-62 -36 61 -379 226 -631 16 -25 16 -25 -44 -62 -75 -46 -170 -138 -170 -163 0 -17 130 -175 148 -181 5 -1 36 23 69 55 73 71 133 105 233 132 126 35 311 23 450 -30 30 -11 68 -24 83 -29 16 -5 66 -29 111 -53 356 -193 688 -551 897 -967 34 -69 67 -128 73 -132 13 -8 148 2 160 13 11 10 -92 223 -172 356 -34 56 -62 104 -62 107 0 2 17 15 38 27 115 70 202 177 222 274 13 63 6 96 -27 129 -74 75 -244 19 -377 -124 l-48 -51 -68 73 c-121 132 -289 286 -370 341 -14 9 -53 36 -88 59 -34 23 -60 48 -58 54 3 7 8 54 11 106 14 196 -34 439 -100 505 -40 40 -58 41 -90 7 -47 -50 -69 -186 -63 -371 3 -77 2 -133 -4 -133 -5 0 -25 7 -46 16 -114 49 -250 74 -397 74 l-111 1 -59 127 c-101 214 -226 402 -303 456 -43 29 -41 29 -64 15z"
       id="path890"
       style="stroke-width:0.99212595;stroke-miterlimit:4;stroke-dasharray:none;fill:#10168a;fill-opacity:1" />
    <path
       d="M820 5805 c0 -3 0 -220 0 -482 0 -373 2 -480 12 -489 18 -17 214 -124 227 -124 8 0 11 58 11 178 0 98 2 181 5 184 3 3 64 -26 135 -65 l130 -70 2 -195 3 -194 115 -63 c63 -35 118 -61 123 -56 4 4 6 227 5 495 l-3 488 -108 59 c-59 32 -114 59 -122 59 -13 0 -15 -27 -15 -170 l0 -170 -87 47 c-49 26 -108 59 -133 73 l-45 26 -5 178 -5 178 -109 59 c-99 53 -136 68 -136 54z"
       id="path892"
       style="stroke-width:0.99212595;stroke-miterlimit:4;stroke-dasharray:none;fill:#10168a;fill-opacity:1" />
    <path
       d="M1776 5303 c-3 -4 -6 -228 -6 -498 l0 -492 313 -171 c172 -95 316 -172 320 -172 4 0 7 49 7 109 l0 109 -190 103 -190 103 0 84 0 84 43 -25 c155 -89 257 -138 262 -125 3 8 4 59 3 113 l-3 98 -150 82 -150 83 -3 82 -3 81 63 -34 c178 -99 272 -147 285 -147 11 0 13 21 11 107 l-3 106 -240 129 c-132 71 -268 144 -302 163 -33 18 -64 31 -67 28z"
       id="path894"
       style="fill:#10168a;fill-opacity:1" />
    <path
       d="M2576 4872 c-3 -3 -6 -229 -6 -502 l0 -496 304 -167 c167 -92 309 -167 315 -167 7 0 11 36 11 105 l0 105 -42 26 c-24 14 -106 60 -183 102 l-140 77 -5 394 -5 395 -45 26 c-103 60 -199 108 -204 102z"
       id="path896"
       style="fill:#10168a;fill-opacity:1" />
    <path
       d="M3360 3946 l0 -505 101 -57 c152 -85 139 -94 139 91 0 86 -7 213 -15 282 -9 69 -14 128 -11 131 3 3 8 -1 10 -9 2 -8 18 -59 35 -114 25 -84 93 -306 132 -432 8 -25 25 -40 75 -68 35 -20 68 -34 73 -31 4 3 51 96 102 207 52 111 95 195 97 186 2 -9 -2 -49 -9 -89 -7 -40 -14 -166 -16 -280 l-4 -206 102 -57 c56 -32 110 -60 120 -62 18 -5 19 11 19 498 0 277 -4 509 -8 515 -12 18 -235 135 -251 132 -10 -2 -49 -88 -106 -230 -49 -125 -93 -228 -96 -228 -3 0 -16 35 -28 78 -49 169 -87 306 -132 467 -18 66 -40 127 -48 136 -16 17 -258 149 -273 149 -4 0 -8 -227 -8 -504z"
       id="path898"
       style="stroke-width:0.99212595;stroke-miterlimit:4;stroke-dasharray:none;fill:#10168a;fill-opacity:1" />
    <path
       d="M1545 4236 c-32 -8 -51 -18 -53 -28 -3 -15 96 -208 137 -268 33 -48 33 -49 -11 -71 -60 -30 -159 -134 -191 -198 -49 -99 -28 -200 45 -217 47 -11 48 -11 104 1 71 16 138 57 207 128 l58 59 37 -43 c129 -152 347 -353 491 -452 l40 -28 -6 -132 c-13 -296 65 -547 162 -523 61 16 102 203 90 409 -4 59 -3 107 1 107 5 0 41 -13 79 -29 110 -44 246 -72 375 -76 l114 -4 41 -93 c88 -200 229 -423 319 -506 182 -167 101 203 -124 575 -22 36 -40 68 -40 72 0 4 15 14 33 23 42 20 135 90 141 105 5 12 -78 127 -132 185 l-25 27 -41 -33 c-91 -74 -183 -106 -326 -111 -201 -9 -405 58 -629 203 -303 196 -579 511 -767 872 -33 62 -45 66 -129 46z"
       id="path900"
       style="stroke-width:0.99212595;stroke-miterlimit:4;stroke-dasharray:none;fill:#10168a;fill-opacity:1" />
    <path
       d="M8525 7239 c-148 -83 -280 -162 -292 -175 l-23 -25 0 -2077 c0 -1649 3 -2082 13 -2102 24 -48 48 -39 342 125 154 86 285 161 292 167 17 14 19 4188 3 4219 -7 12 -21 19 -38 19 -16 0 -136 -61 -297 -151z m235 -2013 l0 -2004 -207 -116 c-113 -64 -212 -116 -220 -116 -11 0 -13 337 -13 2000 l0 2000 27 17 c55 37 389 222 401 222 9 1 12 -406 12 -2003z"
       id="path902" />
    <path
       d="M7410 6635 c-151 -85 -283 -164 -292 -176 -17 -20 -18 -135 -18 -2103 0 -1868 2 -2084 16 -2104 8 -12 26 -22 39 -22 28 0 573 301 593 327 9 13 12 451 12 2108 0 2014 -1 2093 -18 2108 -10 10 -27 17 -38 17 -10 -1 -143 -70 -294 -155z m238 -2011 l-3 -2005 -205 -115 c-113 -63 -211 -114 -217 -114 -10 0 -13 400 -13 2000 l0 2001 37 22 c119 71 380 216 391 216 10 1 12 -403 10 -2005z"
       id="path904" />
    <path
       d="M6291 5980 c-156 -87 -288 -164 -292 -172 -5 -7 -9 -955 -9 -2105 l0 -2093 21 -21 c13 -13 27 -18 39 -14 39 12 575 316 588 332 9 13 12 450 12 2103 0 1871 -2 2088 -16 2108 -8 12 -25 22 -37 22 -12 -1 -150 -72 -306 -160z m247 -2006 l-3 -2006 -205 -115 c-113 -63 -211 -117 -217 -120 -10 -4 -13 400 -13 2001 l0 2007 37 22 c107 64 380 215 391 216 10 1 12 -403 10 -2005z"
       id="path906" />
  </g>
</svg>
