<?xml version="1.0" encoding="UTF-8" standalone="no"?>
<svg
   id="Layer_1"
   data-name="Layer 1"
   width="627"
   height="724.6"
   viewBox="0 0 627 724.6"
   version="1.1"
   sodipodi:docname="helm-chart-logo.svg"
   inkscape:version="1.1.2 (0a00cf5339, 2022-02-04)"
   xmlns:inkscape="http://www.inkscape.org/namespaces/inkscape"
   xmlns:sodipodi="http://sodipodi.sourceforge.net/DTD/sodipodi-0.dtd"
   xmlns="http://www.w3.org/2000/svg"
   xmlns:svg="http://www.w3.org/2000/svg"
   xmlns:rdf="http://www.w3.org/1999/02/22-rdf-syntax-ns#"
   xmlns:cc="http://creativecommons.org/ns#"
   xmlns:dc="http://purl.org/dc/elements/1.1/">
  <sodipodi:namedview
     id="namedview81"
     pagecolor="#ffffff"
     bordercolor="#666666"
     borderopacity="1.0"
     inkscape:pageshadow="2"
     inkscape:pageopacity="0.0"
     inkscape:pagecheckerboard="0"
     showgrid="false"
     inkscape:zoom="1.6105438"
     inkscape:cx="158.64207"
     inkscape:cy="312.62732"
     inkscape:window-width="2525"
     inkscape:window-height="1376"
     inkscape:window-x="70"
     inkscape:window-y="27"
     inkscape:window-maximized="0"
     inkscape:current-layer="Layer_1" />
  <defs
     id="defs64">
    <style
       id="style62">.cls-1{fill:#10168a;}</style>
  </defs>
  <title
     id="title66">helm-logo</title>
  <path
     class="cls-1"
     d="M375.83,17.12c3.38-3.91,9.29-5.89,14-3.27,5.53,3.17,8.85,8.94,11.49,14.53,6.56,14.79,8.59,31.1,9.42,47.12.35,16.43-.94,33.05-5.61,48.88,41.88,4.29,82.93,18.78,117.54,42.85,5.29-16.06,13.7-30.92,23.8-44.42C553.86,113,562,103.63,571.66,96c6.14-4.77,12.79-9.28,20.4-11.25,4.45-1.27,9.93-.94,13.19,2.71,4,4.29,4,10.56,4,16-1.62,14.62-8,28.23-15.22,40.86a154.88,154.88,0,0,1-40.44,46.93c14.74,14.06,28.77,29.12,39.6,46.46q-26.13.12-52.27,0a210.06,210.06,0,0,0-47.71-40.35c-43.7-27.88-97.81-38.49-148.9-30.22-49.3,7.48-95.47,33.23-128.4,70.58-17.42,0-34.85.07-52.28,0,4-6.7,9.07-12.72,13.79-18.94,9.51-12.18,20.81-22.79,32.16-33.21a162.7,162.7,0,0,1-35.05-44.42c-7-12.54-12.61-26.23-13.83-40.67,0-5.3,1-11.61,5.86-14.69,4.66-2.89,10.43-1.68,15.24.16,10.32,4.2,18.68,11.8,26.94,19,15.32,15.91,28,34.55,36.36,55.05a255.21,255.21,0,0,1,119.63-36.68,162.21,162.21,0,0,1-1.55-78.84C365.67,34.78,368.9,24.69,375.83,17.12Z"
     transform="translate(-61.21 -12.66)"
     id="path68" />
  <path
     class="cls-1"
     d="M61.21,297.88c13.84-.27,27.69-.11,41.53-.08,0,18.53-.08,37.07,0,55.6,16.37-.11,32.75.09,49.12-.09-.18-18.44.12-36.88-.15-55.31,13.74-.61,27.54,0,41.31-.28.1,52,0,103.92,0,155.88-13.74,0-27.48,0-41.22,0,0-19.71-.12-39.42,0-59.12-16.37-.58-32.79-.09-49.17-.25,0,19.73-.09,39.46,0,59.19-13.85.41-27.71.09-41.56.16Z"
     transform="translate(-61.21 -12.66)"
     id="path70" />
  <path
     class="cls-1"
     d="M239.68,297.8q48.58-.14,97.17,0c0,11.21-.09,22.42,0,33.63-18.65.48-37.34.11-56,.19-.16,8.45,0,16.9-.07,25.35,16.59.23,33.2-.2,49.79.21-.11,11.49.06,23-.09,34.47-16.55,0-33.1,0-49.65,0-.06,9.6-.12,19.21,0,28.8,18.66.1,37.36-.34,56,.23-.12,10.9-.15,21.8,0,32.7-13.86.68-27.8.1-41.69.29-17.34,0-34.69,0-52,0a15,15,0,0,1-3.61-.38C239.84,401.45,239.68,349.62,239.68,297.8Z"
     transform="translate(-61.21 -12.66)"
     id="path72" />
  <path
     class="cls-1"
     d="M381.7,298.09a14.79,14.79,0,0,1,4.55-.36c12.17.09,24.34-.09,36.51.09-.05,38.2-.16,76.41.06,114.61,18.72,0,37.47-.25,56.19.12-.09,13.64-.07,27.28,0,40.92-32.37.34-64.76.08-97.14.13C381.71,401.77,382,349.92,381.7,298.09Z"
     transform="translate(-61.21 -12.66)"
     id="path74" />
  <path
     class="cls-1"
     d="M523.57,297.78c5.22-.06,10.45,0,15.67-.06,1.34.07,2.94-.28,3.94.89,20.91,18.88,41.72,37.88,62.66,56.73q31.73-28.87,63.57-57.62c6.26.08,12.53,0,18.8.09V453.6c-13.92,0-27.85.13-41.77-.07,0-26.44.1-52.88-.05-79.32-13.73,11.9-27,24.38-40.41,36.59C592.1,399,578.89,386.38,565.2,374.35c-.27,26.41,0,52.83-.12,79.24-13.86-.07-27.73.31-41.58-.19C523.69,401.52,523.55,349.65,523.57,297.78Z"
     transform="translate(-61.21 -12.66)"
     id="path76" />
  <path
     class="cls-1"
     d="M167.25,517c17.72-.14,35.46-.1,53.18,0a218.62,218.62,0,0,0,95.87,59.53,215.75,215.75,0,0,0,120.81,1c37.66-10.72,72.58-31.68,99.09-60.56q26.88-.13,53.77,0c-10.43,15.23-23,28.94-36.36,41.59,13.87,10.57,25.52,23.84,35.12,38.36,9.27,14.94,17.92,30.92,20.41,48.56.23,5.18.16,10.83-2.56,15.43-2.22,3.86-7,5.61-11.26,5-6.32-.76-12.05-3.81-17.3-7.23-15.08-10-26.89-24.14-37-39-7.46-11.44-14.22-23.58-18-36.75-35,23.54-75.75,38.74-117.8,42.95,3.76,12.83,5.27,26.18,5.62,39.52.21,18-1.8,36.42-8.41,53.32-3,7-6.89,14.65-14.27,17.8-4.35,2.13-9-.88-12.09-3.86-6.83-7.21-10-17-12.56-26.37a157.68,157.68,0,0,1,1.3-79.38,257.7,257.7,0,0,1-119.55-36.76,183.87,183.87,0,0,1-20.79,36.45c-6.48,8.45-13,17.15-21.6,23.53-6.36,5.63-13.32,10.78-21.21,14-4.78,1.8-10.5,3-15.12.08-4.82-3.1-5.85-9.42-5.82-14.72,1.56-17.72,9.69-34,18.61-49a165.6,165.6,0,0,1,30.28-36.1C194,550.1,178.81,534.84,167.25,517Z"
     transform="translate(-61.21 -12.66)"
     id="path78" />
  <text
     xml:space="preserve"
     style="font-style:normal;font-variant:normal;font-weight:bold;font-stretch:normal;font-size:69.3333px;line-height:1.25;font-family:sans-serif;-inkscape-font-specification:'sans-serif, Bold';font-variant-ligatures:normal;font-variant-caps:normal;font-variant-numeric:normal;font-variant-east-asian:normal;fill:#10168a;fill-opacity:1;stroke:none;stroke-width:1.67317"
     x="206.71846"
     y="479.44794"
     id="text3487"
     transform="scale(0.93452599,1.0700612)"><tspan
       sodipodi:role="line"
       id="tspan3485"
       x="206.71846"
       y="479.44794"
       style="font-style:normal;font-variant:normal;font-weight:bold;font-stretch:normal;font-size:69.33333325px;font-family:sans-serif;-inkscape-font-specification:'sans-serif, Bold';font-variant-ligatures:normal;font-variant-caps:normal;font-variant-numeric:normal;font-variant-east-asian:normal;fill:#10168a;fill-opacity:1;stroke-width:1.67317">CHART</tspan></text>
  <metadata
     id="metadata13629">
    <rdf:RDF>
      <cc:Work
         rdf:about="">
        <dc:title>helm-logo</dc:title>
      </cc:Work>
    </rdf:RDF>
  </metadata>
</svg>
